<?xml version="1.0" standalone="no"?>
<!DOCTYPE svg PUBLIC "-//W3C//DTD SVG 20010904//EN"
 "http://www.w3.org/TR/2001/REC-SVG-20010904/DTD/svg10.dtd">
<svg version="1.0" xmlns="http://www.w3.org/2000/svg"
 width="600.000000pt" height="600.000000pt" viewBox="0 0 600.000000 600.000000"
 preserveAspectRatio="xMidYMid meet">

<g transform="translate(0.000000,600.000000) scale(0.100000,-0.100000)"
fill="#000000" stroke="none">
<path d="M2755 5370 c-75 -11 -136 -30 -130 -40 3 -4 -3 -6 -14 -3 -10 2 -52
-12 -92 -33 -198 -99 -377 -287 -466 -490 -46 -103 -63 -175 -70 -296 -7 -131
4 -172 22 -78 52 265 241 509 486 624 123 59 184 71 354 70 174 0 230 -12 372
-79 254 -120 387 -300 588 -800 42 -104 95 -223 118 -264 80 -141 203 -235
367 -280 91 -25 127 -27 50 -2 -101 32 -182 82 -260 161 -118 117 -162 221
-260 605 -59 235 -81 299 -133 400 -143 276 -377 454 -661 504 -67 12 -195 12
-271 1z"/>
<path d="M2230 4288 c-36 -4 -85 -14 -110 -21 l-45 -13 85 -6 c152 -12 275
-70 435 -208 237 -203 565 -219 840 -40 68 44 85 61 38 36 -66 -33 -202 -68
-288 -73 -185 -11 -310 33 -499 176 -180 138 -279 170 -456 149z"/>
<path d="M1988 4243 c-47 -72 -56 -90 -72 -143 -49 -165 26 -261 296 -381 61
-26 119 -56 129 -65 18 -16 19 -16 19 6 0 17 -40 63 -144 164 -181 178 -201
213 -201 358 0 54 -1 98 -1 98 -1 0 -12 -17 -26 -37z"/>
<path d="M2070 4133 c0 -50 36 -136 72 -169 18 -17 56 -43 83 -59 76 -43 134
-94 156 -137 11 -21 26 -84 35 -141 8 -56 22 -112 30 -124 20 -31 76 -30 133
2 23 14 50 25 59 25 12 0 13 3 4 12 -8 8 -24 7 -63 -5 -94 -31 -97 -28 -124
98 -34 160 -44 185 -95 236 l-49 48 37 29 c20 16 62 44 92 61 l55 32 -45 -6
c-58 -9 -118 -36 -153 -69 -16 -14 -34 -23 -40 -20 -104 60 -145 103 -173 183
l-13 36 -1 -32z"/>
<path d="M2562 3919 c-18 -21 -45 -42 -60 -45 -15 -4 -38 -18 -51 -32 l-25
-25 25 7 c13 4 38 7 56 7 23 -1 37 6 52 25 18 23 45 93 38 100 -1 1 -17 -15
-35 -37z"/>
<path d="M1635 3932 c-56 -7 -113 -88 -106 -150 2 -20 0 -21 -24 -12 -38 14
-100 12 -140 -4 -36 -15 -75 -67 -75 -99 0 -29 30 -78 42 -71 7 5 8 3 3 -5
-14 -24 81 -101 107 -85 7 4 8 3 4 -4 -11 -18 128 -56 208 -56 62 -1 70 1 87
24 43 58 65 238 41 326 -25 86 -87 144 -147 136z"/>
<path d="M3248 3825 c40 -19 86 -44 103 -56 27 -19 30 -26 25 -53 -22 -109
-211 -357 -312 -409 -38 -19 -61 -10 -111 47 -35 40 -46 46 -74 44 -34 -3 -34
-3 -34 40 0 23 -1 42 -2 42 -2 0 -17 -9 -35 -20 -18 -11 -47 -20 -64 -20 -24
0 -34 7 -52 38 l-22 37 2 -55 3 -55 45 1 c25 0 52 3 61 7 13 6 15 3 11 -21 -6
-42 19 -58 66 -43 36 11 38 10 70 -25 17 -21 30 -39 29 -41 -2 -2 -76 0 -165
3 -160 7 -161 7 -167 31 -3 14 -1 31 6 39 9 11 7 14 -9 14 -25 0 -46 -33 -37
-59 5 -16 -4 -19 -82 -25 -48 -3 -106 -11 -128 -17 -53 -14 -122 -55 -135 -80
-11 -19 -9 -19 37 4 80 41 140 48 387 46 247 -2 390 -11 471 -30 41 -10 63
-25 129 -88 l78 -76 -51 70 c-71 97 -87 112 -129 125 -20 6 -43 13 -50 16 -9
2 5 19 35 43 113 89 212 242 246 380 l14 54 39 -47 c21 -26 62 -89 89 -141
125 -233 215 -261 625 -190 246 43 386 49 458 22 55 -21 115 -68 140 -110 56
-91 78 -248 60 -424 -18 -176 -16 -231 11 -283 28 -55 66 -97 106 -116 l30
-15 -27 21 c-14 11 -41 44 -60 72 -30 48 -33 59 -33 133 0 44 6 118 13 165 17
117 15 332 -3 421 -29 138 -98 229 -203 269 -112 43 -245 34 -527 -32 -121
-28 -195 -40 -256 -41 -79 -2 -89 0 -135 28 -33 21 -73 62 -121 125 -84 110
-126 150 -205 190 -59 31 -196 80 -220 80 -7 -1 20 -16 60 -35z"/>
<path d="M2250 3556 c-138 -29 -265 -128 -327 -254 -37 -74 -38 -79 -38 -186
0 -103 2 -116 31 -176 17 -36 54 -91 83 -122 61 -67 68 -38 -62 -248 -102
-164 -188 -336 -212 -425 -16 -60 -44 -470 -45 -661 0 -106 26 -207 62 -242
31 -28 90 -52 129 -52 l32 0 -41 30 c-68 49 -76 74 -80 244 -4 133 4 235 34
486 14 119 63 262 172 500 104 230 150 349 178 465 30 123 30 146 1 76 -12
-30 -27 -56 -34 -58 -19 -7 -72 116 -79 182 -17 162 89 338 256 426 50 26 52
29 25 28 -16 0 -55 -6 -85 -13z"/>
<path d="M4450 3248 c44 -66 81 -157 96 -234 17 -89 33 -320 28 -404 -1 -30
-5 -111 -9 -180 -20 -409 -161 -1024 -325 -1415 -130 -311 -181 -346 -454
-315 -507 59 -869 139 -1276 284 -72 26 -254 112 -370 176 -35 18 -70 30 -95
30 -46 0 -91 21 -114 52 -60 81 -70 102 -76 156 -3 31 -8 73 -10 93 -5 43 22
99 56 116 l24 13 -23 0 c-13 0 -33 -11 -46 -25 -21 -22 -24 -38 -28 -133 -6
-122 0 -144 57 -210 43 -49 78 -70 132 -77 83 -12 101 -19 173 -65 279 -177
756 -355 1190 -444 163 -33 231 -44 310 -51 36 -3 94 -10 129 -16 154 -24 215
-29 251 -19 46 12 106 53 102 69 -1 7 1 10 6 7 13 -8 74 72 66 86 -4 6 -3 8 4
5 32 -20 251 652 368 1128 146 599 163 1025 49 1244 -35 67 -105 127 -168 146
-69 21 -72 20 -47 -17z"/>
<path d="M2967 3099 c10 -10 200 -82 276 -104 35 -10 82 -35 120 -64 34 -26
83 -62 109 -79 26 -18 70 -54 97 -81 28 -28 51 -44 51 -38 0 20 -251 256 -294
277 -44 21 -373 103 -359 89z"/>
<path d="M2894 2985 c11 -8 73 -45 139 -82 87 -49 130 -80 156 -112 56 -70 96
-107 154 -145 30 -19 62 -45 71 -57 10 -15 16 -18 16 -9 0 8 -23 35 -52 60
-79 70 -130 121 -171 172 -21 27 -57 59 -80 72 -54 32 -258 120 -233 101z"/>
<path d="M3155 2900 c11 -5 39 -14 62 -20 30 -7 77 -39 155 -103 116 -94 167
-131 173 -125 2 2 -24 25 -58 51 -34 26 -96 76 -137 111 -72 62 -99 75 -185
90 -24 4 -26 4 -10 -4z"/>
<path d="M2360 2890 c0 -4 11 -24 25 -44 14 -20 25 -40 25 -44 0 -5 -16 -23
-35 -42 -47 -46 -124 -159 -167 -245 -98 -196 -148 -407 -148 -620 0 -201 38
-283 174 -378 14 -10 36 -37 47 -59 31 -61 115 -140 184 -172 124 -58 192 -67
625 -76 449 -10 591 -26 666 -75 22 -14 24 -14 28 7 34 176 135 517 220 742
59 155 42 329 -74 761 l-29 110 6 -80 c3 -44 7 -224 7 -400 l1 -320 -77 -230
c-75 -224 -118 -396 -118 -469 0 -20 -2 -36 -5 -36 -3 0 -23 9 -43 19 -139 71
-291 88 -615 71 -131 -7 -240 -11 -242 -8 -3 2 27 17 67 32 112 44 226 119
366 242 40 35 142 151 122 138 -8 -5 -55 -36 -105 -68 -230 -151 -417 -252
-570 -306 -104 -37 -153 -36 -238 3 -73 34 -109 67 -146 136 -17 33 -43 69
-58 80 -22 18 -27 33 -39 123 -7 57 -14 173 -14 258 0 242 31 419 104 610 27
69 100 225 111 238 1 1 26 -12 55 -30 51 -31 58 -33 154 -34 59 0 110 -6 124
-13 21 -11 22 -11 11 7 -22 35 -52 46 -130 47 -89 1 -164 32 -230 95 -21 20
-39 34 -39 30z"/>
<path d="M2935 2814 c11 -8 46 -29 79 -45 34 -17 95 -63 143 -110 75 -70 171
-139 197 -139 4 0 -18 18 -50 40 -33 21 -96 72 -141 113 -52 47 -111 88 -165
115 -45 23 -74 35 -63 26z"/>
<path d="M2840 2814 c0 -6 30 -57 66 -115 44 -69 93 -129 145 -179 112 -107
103 -69 -13 55 -20 22 -49 63 -63 90 -24 49 -135 171 -135 149z"/>
<path d="M3639 2589 c-3 -74 -8 -90 -31 -121 -38 -49 -113 -72 -211 -63 -70 6
-167 20 -217 31 -24 5 -24 5 -5 -9 29 -22 34 -207 8 -287 l-18 -55 -85 -17
c-181 -37 -387 -91 -399 -105 -3 -3 5 -3 19 0 14 4 100 14 190 23 226 22 459
16 553 -15 80 -26 133 -69 160 -131 34 -77 26 -267 -18 -405 -16 -50 30 46 50
105 67 198 52 390 -37 465 -59 50 -174 85 -279 85 l-35 0 4 83 c2 52 -2 105
-11 147 -9 36 -14 66 -13 67 1 1 24 -5 51 -13 70 -21 201 -29 252 -15 116 32
150 138 90 282 -14 34 -14 33 -18 -52z"/>
<path d="M2858 2575 c64 -88 176 -185 214 -185 14 0 2 12 -38 39 -33 22 -90
70 -128 108 -39 37 -60 55 -48 38z"/>
</g>
</svg>
